# AST/ASF file generated using VICON BodyLanguage
# -----------------------------------------------
:version 1.10
:name VICON
:units
  mass 1.0
  length 0.45
  angle deg
:documentation
   .ast/.asf automatically generated from VICON data using
   VICON BodyBuilder and BodyLanguage model FoxedUp or BRILLIANT.MOD
:root
   order TX TY TZ RX RY RZ
   axis XYZ
   position 0 0 0  
   orientation 0 0 0 
:bonedata
  begin
     id 1 
     name lhipjoint
     direction 0.575328 -0.747301 0.332475 
     length 2.40933 
     axis 0 0 0  XYZ
  end
  begin
     id 2 
     name lfemur
     direction 0.34202 -0.939693 0  
     length 7.31453  
     axis 0 0 20  XYZ
    dof rx ry rz
    limits (-160.0 20.0)
           (-70.0 70.0)
           (-60.0 70.0)
  end
  begin
     id 3 
     name ltibia
     direction 0.34202 -0.939693 0   
     length 7.82185   
     axis 0 0 20   XYZ
    dof rx
    limits (-10.0 170.0)
  end
  begin
     id 4 
     name lfoot
     direction 0.0795993 -0.218697 0.972541   
     length 2.19173   
     axis -90 7.62852e-016 20   XYZ
    dof rx rz
    limits (-45.0 90.0)
           (-70.0 20.0)
  end
  begin
     id 5 
     name ltoes
     direction 1.53537e-011 -4.21894e-011 1   
     length 1.10023   
     axis -90 7.62852e-016 20   XYZ
    dof rx
    limits (-90.0 20.0)
  end
  begin
     id 6 
     name rhipjoint
     direction -0.513884 -0.783789 0.348708   
     length 2.29716  
     axis 0 0 0  XYZ 
  end
  begin
     id 7 
     name rfemur
     direction -0.34202 -0.939693 0   
     length 7.59573   
     axis 0 0 -20   XYZ
    dof rx ry rz
    limits (-160.0 20.0)
           (-70.0 70.0)
           (-70.0 60.0)
  end
  begin
     id 8 
     name rtibia
     direction -0.34202 -0.939693 0   
     length 7.66402   
     axis 0 0 -20   XYZ
    dof rx
    limits (-10.0 170.0)
 end
 begin
     id 9 
     name rfoot
     direction -0.137793 -0.378584 0.915253   
     length 2.27056  
     axis -90 -7.62852e-016 -20   XYZ
    dof rx rz
    limits (-45.0 90.0)
           (-20.0 70.0)
  end
  begin
     id 10 
     name rtoes
     direction -1.53493e-011 -4.22159e-011 1   
     length 1.11766   
     axis -90 -7.62852e-016 -20   XYZ
    dof rx
    limits (-90.0 20.0)
  end
  begin
     id 11 
     name lowerback
     direction -0.00732775 0.998356 -0.05685   
     length 2.16513   
     axis 0 0 0   XYZ
    dof rx ry rz
    limits (-20.0 45.0)
           (-30.0 30.0)
           (-30.0 30.0)
  end
  begin
     id 12 
     name upperback
     direction 0.0218081 0.999627 -0.0164647   
     length 2.16755   
     axis 0 0 0   XYZ
    dof rx ry rz
    limits (-20.0 45.0)
           (-30.0 30.0)
           (-30.0 30.0)
  end
  begin
     id 13 
     name thorax
     direction 0.02365 0.999661 0.0108914   
     length 2.16932   
     axis 0 0 0   XYZ
    dof rx ry rz
    limits (-20.0 45.0)
           (-30.0 30.0)
           (-30.0 30.0)
  end
  begin
     id 14 
     name lowerneck
     direction -0.0523929 0.978385 0.200044   
     length 1.63877   
     axis 0 0 0   XYZ
    dof rx ry rz
    limits (-20.0 45.0)
           (-30.0 30.0)
           (-30.0 30.0)
  end
  begin
     id 15 
     name upperneck
     direction 0.0448674 0.981321 -0.187074   
     length 1.69014   
     axis 0 0 0   XYZ
    dof rx ry rz
    limits (-20.0 45.0)
           (-30.0 30.0)
           (-30.0 30.0)
  end
  begin
     id 16
     name head
     direction 0.0199089 0.996118 -0.0857429  
     length 1.70094  
     axis 0 0 0   XYZ
    dof rx ry rz
    limits (-20.0 45.0)
           (-30.0 30.0)
           (-30.0 30.0)
  end
  begin
     id 17 
     name lclavicle
     direction 0.940366 0.30191 -0.156722  
     length 3.37521  
     axis 0 0 0   XYZ
    dof ry rz
    limits (-20.0 10.0)
           (0.0 20.0)
  end
  begin
     id 18 
     name lhumerus
     direction 1 -4.4897e-011 -1.7911e-027   
     length 5.25287   
     axis 180 -30 -90   XYZ
    dof rx ry rz
    limits (-60.0 90.0)
           (-90.0 90.0)
           (-90.0 90.0)
  end
  begin
     id 19
     name lradius
     direction 1 -4.48951e-011 1.04424e-027   
     length 3.51014   
     axis 180 -30 -90   XYZ
    dof rx
    limits (-10.0 170.0)
  end
  begin
     id 20
     name lwrist
     direction 1 -4.48997e-011 -9.5942e-028   
     length 1.75507   
     axis 8.48502e-016 90 90   XYZ
    dof ry
    limits (-180.0 0.0)
 end
  begin
     id 21 
     name lhand
     direction 1 -4.48831e-011 -1.90777e-027   
     length 0.706179   
     axis 1.22306e-015 90 90   XYZ
    dof rx rz
    limits (-90.0 90.0)
           (-45.0 45.0)
  end
  begin
     id 22 
     name lfingers
     direction 1 -4.49108e-011 -3.85244e-027   
     length 0.569339   
     axis 2.44611e-015 90 90   XYZ
    dof rx
    limits (0.0 90.0)
  end
  begin
     id 23
     name lthumb
     direction 0.707107 -6.34953e-011 0.707107   
     length 0.817461   
     axis -90 45 -1.62303e-014   XYZ
    dof rx rz
    limits (-45.0 45.0)
           (-45.0 45.0)
  end
  begin
     id 24 
     name rclavicle
     direction -0.905329 0.382405 -0.184787   
     length 3.30787  
     axis 0 0 0   XYZ 
    dof ry rz
    limits (-10.0 20.0)
           (-20.0 0.0)
  end
  begin
     id 25 
     name rhumerus
     direction -1 -4.48953e-011 -9.15316e-029  
     length 5.28721   
     axis 180 30 90   XYZ
    dof rx ry rz
    limits (-90.0 60.0)
           (-90.0 90.0)
           (-90.0 90.0)
  end
  begin
     id 26 
     name rradius
     direction -1 -4.48987e-011 9.37824e-028   
     length 3.50544   
     axis 180 30 90   XYZ
    dof rx
    limits (-10.0 170.0)
  end
  begin
     id 27 
     name rwrist
     direction -1 -4.48967e-011 -9.58414e-028   
     length 1.75272   
     axis 8.48502e-016 -90 -90   XYZ
    dof ry
    limits (-180.0 0.0)
  end
  begin
     id 28
     name rhand
     direction -1 -4.48904e-011 -1.91266e-027   
     length 0.884996   
     axis 1.22306e-015 -90 -90   XYZ
    dof rx rz
    limits (-90.0 90.0)
           (-45.0 45.0)
  end
  begin
     id 29
     name rfingers
     direction -1 -4.4909e-011 -3.85015e-027   
     length 0.713507   
     axis 2.44611e-015 -90 -90   XYZ
    dof rx
    limits (0.0 90.0)
  end
  begin
     id 30
     name rthumb
     direction -0.707107 -6.34853e-011 0.707107   
     length 1.02446   
     axis -90 -45 1.62303e-014   XYZ
    dof rx rz
    limits (-45.0 45.0)
           (-45.0 45.0)
  end
:hierarchy
  begin
    root lhipjoint rhipjoint lowerback
    lhipjoint lfemur
    lfemur ltibia
    ltibia lfoot
    lfoot ltoes
    rhipjoint rfemur
    rfemur rtibia
    rtibia rfoot
    rfoot rtoes
    lowerback upperback
    upperback thorax
    thorax lowerneck lclavicle rclavicle
    lowerneck upperneck
    upperneck head
    lclavicle lhumerus
    lhumerus lradius
    lradius lwrist
    lwrist lhand lthumb
    lhand lfingers
    rclavicle rhumerus
    rhumerus rradius
    rradius rwrist
    rwrist rhand rthumb
    rhand rfingers
  end

#!OML:ASF F:\twosubjects\two\Thursday\Session 1\justin.ASF
:FULLY-SPECIFIED
:DEGREES
16
root 8.45419 18.5165 13.9793 -167.911 4.86627 -177.214
lowerback 0.647445 2.3486 -3.11755
upperback 1.56888 3.17057 -0.148539
thorax 1.08696 1.56498 1.5971
lowerneck -20.5995 -4.35652 -10.0148
upperneck 19.7158 -5.10829 8.21867
head 10.166 -2.24522 3.80657
rclavicle -3.61788e-014 2.38542e-014
rhumerus -26.2524 -9.33875 -84.8838
rradius 32.9583
rwrist -6.64865
rhand -12.6934 12.1694
rfingers 7.12502
rthumb 13.3887 -17.3804
lclavicle -3.61788e-014 2.38542e-014
lhumerus -27.3103 -0.759318 82.7452
lradius 33.317
lwrist -2.34067
lhand -1.91642 36.8877
lfingers 7.12502
lthumb 23.7536 65.4396
rfemur -16.8465 -5.58353 19.6474
rtibia 56.7371
rfoot 2.35665 4.01799
rtoes -8.9271
lfemur -22.4182 9.79889 -21.2645
ltibia 16.198
lfoot -4.54136 -5.92607
ltoes -10.1391
17
root 8.4394 18.5072 13.9159 -167.689 5.23948 -177.37
lowerback 0.226958 2.31455 -2.75296
upperback 1.63254 3.1529 -0.661952
thorax 1.43674 1.56077 0.890973
lowerneck -20.7827 -4.24094 -9.55557
upperneck 19.6086 -5.06205 8.22098
head 10.1435 -2.18225 3.73541
rclavicle -3.93594e-014 1.90833e-014
rhumerus -25.7135 -9.25952 -85.7343
rradius 33.1627
rwrist -7.01652
rhand -12.6111 12.2825
rfingers 7.12502
rthumb 13.4681 -17.2621
lclavicle -3.93594e-014 1.90833e-014
lhumerus -26.8826 -0.958935 82.0089
lradius 33.6194
lwrist -2.10996
lhand -2.63857 36.5312
lfingers 7.12502
lthumb 23.0608 65.1714
rfemur -18.0333 -5.52888 19.3783
rtibia 58.0033
rfoot 2.10838 2.70618
rtoes -7.72179
lfemur -22.562 9.75356 -21.4961
ltibia 16.597
lfoot -4.89078 -5.49516
ltoes -10.1227
18
root 8.4229 18.5189 13.8417 -167.924 5.22524 -177.35
lowerback 0.66246 2.30507 -3.30951
upperback 1.47047 3.1074 -0.157998
thorax 0.971325 1.53323 1.69101
lowerneck -20.5794 -4.25413 -10.2318
upperneck 19.6774 -4.8882 8.20939
head 10.1313 -2.16034 3.87308
rclavicle 7.65321e-015 -2.38542e-015
rhumerus -25.865 -8.56537 -85.093
rradius 33.3102
rwrist -7.52437
rhand -12.6669 13.1877
rfingers 7.12502
rthumb 13.4143 -16.3604
lclavicle 7.65321e-015 -2.38542e-015
lhumerus -27.1802 -0.673001 82.7742
lradius 33.8694
lwrist -1.45437
lhand -5.05126 35.6146
lfingers 7.12502
lthumb 20.7442 64.5259
rfemur -18.5492 -5.85221 19.3546
rtibia 59.1505
rfoot 1.38452 1.17866
rtoes -7.15622
lfemur -22.0294 9.78685 -21.4904
ltibia 16.5921
lfoot -5.16634 -5.45729
ltoes -10.8432
19
root 8.39873 18.5376 13.7609 -168.245 5.23941 -177.34
lowerback 0.935931 2.26126 -3.40042
upperback 1.49912 3.03799 0.0264575
thorax 0.8368 1.49904 1.91929
lowerneck -20.4784 -4.25816 -10.604
upperneck 19.6547 -4.80143 8.2791
head 10.1075 -2.14255 3.97393
rclavicle 7.45443e-015 -3.57812e-015
rhumerus -25.7348 -8.30177 -84.9794
rradius 33.4463
rwrist -7.6326
rhand -12.7944 13.9674
rfingers 7.12502
rthumb 13.2914 -15.5887
lclavicle 7.45443e-015 -3.57812e-015
lhumerus -27.1263 -0.56724 83.0888
lradius 34.0222
lwrist -0.761329
lhand -6.84295 35.4272
lfingers 7.12502
lthumb 19.0219 64.5171
rfemur -18.9045 -6.36222 19.2373
rtibia 60.0487
rfoot 0.483148 -0.334934
rtoes -5.68211
lfemur -21.6644 9.998 -21.5937
ltibia 16.8611
lfoot -5.55517 -5.57641
ltoes -11.1276
20
root 8.37214 18.5169 13.6803 -168.594 5.63712 -177.371
lowerback 1.06532 2.36107 -3.34051
upperback 1.63272 3.17487 -0.0123213
thorax 0.899085 1.56804 1.84286
lowerneck -20.5737 -4.28101 -10.6228
upperneck 19.75 -4.80286 8.19608
head 10.1576 -2.15296 3.94805
rclavicle 1.11319e-014 -1.23246e-014
rhumerus -25.4186 -8.29625 -85.1392
rradius 33.6685
rwrist -7.54619
rhand -13.3679 13.6506
rfingers 7.12502
rthumb 12.7386 -15.9409
lclavicle 1.11319e-014 -1.23246e-014
lhumerus -26.9694 -0.709388 83.1177
lradius 34.4041
lwrist -0.250728
lhand -7.95025 35.7283
lfingers 7.12502
lthumb 17.9567 64.9194
rfemur -19.3973 -6.52981 19.0042
rtibia 60.9665
rfoot -0.79818 -2.14499
rtoes -8.49205
lfemur -20.8602 9.88934 -21.6575
ltibia 16.8086
lfoot -5.95515 -4.84718
ltoes -13.7551
21
root 8.36934 18.5366 13.6265 -168.444 5.0643 -177.299
lowerback 1.06994 2.20884 -3.25033
upperback 1.57305 2.96826 0.0177443
thorax 0.849503 1.46605 1.82351
lowerneck -20.9833 -4.29154 -10.3539
upperneck 20.1564 -4.83487 7.96582
head 10.3689 -2.17099 3.81986
rclavicle -6.26172e-015 0
rhumerus -25.0753 -8.61832 -85.3113
rradius 33.9352
rwrist -7.25055
rhand -14.1531 12.5986
rfingers 7.12502
rthumb 11.9814 -17.0385
lclavicle -6.26172e-015 0
lhumerus -26.6819 -0.610085 82.9253
lradius 34.8641
lwrist -0.450036
lhand -6.83941 36.1864
lfingers 7.12502
lthumb 19.0253 65.2759
rfemur -20.3436 -7.33589 19.38
rtibia 61.6882
rfoot -1.67876 -4.41369
rtoes -11.0342
lfemur -20.96 10.0432 -21.6407
ltibia 16.8279
lfoot -6.07213 -5.59111
ltoes -12.0999
